<svg xmlns="http://www.w3.org/2000/svg" viewBox="0 0 310 74" role="img" aria-labelledby="logo-h-title">
  <title id="logo-h-title">Decodificador de Ciúme™</title>
  <defs>
    <style>
      @import url('https://fonts.googleapis.com/css2?family=Cormorant+Garamond:ital,wght@0,600;0,700;1,400;1,500&amp;display=swap');
      .c-heart    { fill: #8B2252; }
      .c-pulse    { fill: none; stroke: #F5E6E8; stroke-width: 2.2; stroke-linecap: round; stroke-linejoin: round; }
      .c-dot      { fill: #E8805A; }
      .t-main     { font-family: 'Cormorant Garamond', Georgia, serif; font-size: 26px; font-weight: 700; fill: #8B2252; letter-spacing: 0.5px; }
      .t-sub      { font-family: 'Cormorant Garamond', Georgia, serif; font-size: 19px; font-style: italic; font-weight: 600; fill: #E8805A; letter-spacing: 1.5px; }
    </style>
  </defs>

  <!-- Icon group — 60x60 centered vertically in 70px height at x=3 -->
  <g transform="translate(3, 5)">
    <path class="c-heart" d="M 30,52 C 28,48 5,37 5,22 C 5,11 13,4 21,4 C 26,4 29,8 30,12 C 31,8 34,4 39,4 C 47,4 55,11 55,22 C 55,37 32,48 30,52 Z"/>
    <polyline class="c-pulse" points="7,29 16,29 18,33 21.5,16 25,33 27.5,29 53,29"/>
    <circle class="c-dot" cx="21.5" cy="16" r="2.2"/>
  </g>

  <!-- Wordmark -->
  <text class="t-main" x="76" y="33">Decodificador</text>
  <text class="t-sub"  x="77" y="57">de Ciúme™</text>
</svg>
